<?xml version="1.0" encoding="UTF-8"?>
<svg width="241px" height="256px" viewBox="0 0 241 256" version="1.1" xmlns="http://www.w3.org/2000/svg" xmlns:xlink="http://www.w3.org/1999/xlink">
    <!-- Generator: Sketch 47.1 (45422) - http://www.bohemiancoding.com/sketch -->
    <title>Steem</title>
    <desc>Created with Sketch.</desc>
    <defs></defs>
    <g id="Classic" stroke="none" stroke-width="1" fill="none" fill-rule="evenodd">
        <g transform="translate(-4010.000000, -1805.000000)" id="Steem">
            <g transform="translate(4010.000000, 1805.000000)">
                <path d="M193.014194,28.904007 C181.912331,38.2216496 170.453644,49.6803365 165.794771,63.6369938 C160.422354,80.1112745 167.935918,96.9425836 175.112414,111.612786 C182.269154,126.659772 190.1594,141.330077 196.959317,156.733784 C202.331734,168.906221 209.845401,183.219702 208.06118,196.839291 C206.633783,206.513859 203.402308,215.811644 201.618189,225.486008 C200.19069,231.928999 206.276857,225.486008 208.418004,223.701787 C220.947264,212.95685 234.546995,200.784413 239.562691,184.310133 C242.060559,176.082819 240.633265,168.549397 237.778368,160.678907 C234.923677,153.165445 231.692201,146.008704 228.460828,138.475283 C221.660911,123.428297 214.504171,108.401168 207.327675,93.3541822 C204.472881,87.9817647 201.598229,82.2523189 199.100361,76.5229754 C196.602493,70.4368083 195.155238,63.9937152 194.798415,57.1937983 C194.441489,51.8213809 194.441489,46.8056848 195.155238,41.4332673 C195.512062,37.4881446 196.582635,33.9196008 196.939561,29.974478 C197.31614,27.8334337 195.53192,27.0999287 193.014194,28.904007 M29.0437886,28.904007 C17.9419253,38.2017919 6.48334074,49.6605812 1.82446829,63.6369938 C-3.5480515,80.1112745 3.96551267,96.9425836 11.1421108,111.612786 C18.2988513,126.639914 26.1692392,141.330077 32.969156,156.714029 C38.3416758,168.886465 45.8551376,183.199844 44.0710193,196.819535 C42.6436222,206.493899 39.4121468,215.791786 37.6279261,225.466253 C36.2005291,231.909243 42.2867986,225.466253 44.4278429,223.682032 C56.9570009,212.937095 70.5567322,200.764658 75.5724283,184.290275 C78.0703987,176.062961 76.6430017,168.529642 73.78831,160.659151 C70.9335159,153.14569 67.7020405,145.988949 64.4705651,138.455527 C57.6707506,123.408541 50.5140101,108.381413 43.3375143,93.3344269 C40.4827202,87.9619071 37.6081708,82.2325636 35.1102004,76.5032202 C32.61223,70.4169507 31.1650776,63.9739599 30.808254,57.174043 C30.4513279,51.8016256 30.4513279,46.7859295 31.1650776,41.4134097 C31.5219013,37.4682869 32.5924747,33.8998455 32.9492984,29.9547228 C33.3259797,27.833536 31.541759,27.0999287 29.0437886,28.904007" id="Fill-1" fill="#1D5596"></path>
                <path d="M108.521194,1.68464582 C95.9919341,12.0727594 82.3921004,24.6020197 74.858781,39.2723244 C69.4862612,49.6605403 68.7726138,60.4055798 71.6273056,71.1306594 C75.2156046,84.0167434 80.2115455,96.9028273 85.5839629,109.432088 C95.9720764,133.419933 109.57191,155.980483 119.603302,180.325254 C123.191499,188.909493 127.116764,198.583857 127.830514,208.258324 C128.544161,220.073937 124.599038,232.603094 121.387421,243.70506 C120.673773,246.936433 118.532729,251.218522 118.889553,254.449895 C119.246376,256.947968 120.673773,255.877394 122.120926,254.806821 C128.207093,250.148051 134.293362,244.775531 139.665882,239.403011 C154.336187,225.446456 171.167291,206.811171 169.739996,184.984126 C169.026247,176.023307 164.7243,167.439272 161.155859,159.21206 C157.210736,149.557247 152.928545,140.259565 148.626701,130.941922 C140.756211,113.397068 132.509142,96.2089353 123.925004,79.0209049 C121.070312,72.9347378 117.482013,67.2053943 115.340867,61.1191248 C112.109493,52.8919133 110.682096,44.2880205 110.325273,35.7038829 C109.968449,29.2608921 110.325273,22.4609753 111.03892,16.0178821 C111.395744,11.7159357 112.823141,7.79067061 112.823141,3.48872419 C113.893714,-0.456398561 111.752567,-0.813222231 108.521194,1.68464582" id="Fill-4" fill="#669FD2"></path>
            </g>
        </g>
    </g>
</svg>